<mxfile host="app.diagrams.net" modified="2024-05-20T19:03:17.387Z" agent="Mozilla/5.0 (Windows NT 10.0; Win64; x64) AppleWebKit/537.36 (KHTML, like Gecko) Chrome/123.0.0.0 Safari/537.36 OPR/109.0.0.0" etag="_0ajTtsLGlL5B7Nzcsk-" version="24.4.4" type="device">
  <diagram name="Page-1" id="eKCKNtZOuxgVORMuDA98">
    <mxGraphModel dx="2533" dy="1393" grid="1" gridSize="10" guides="1" tooltips="1" connect="1" arrows="1" fold="1" page="1" pageScale="1" pageWidth="827" pageHeight="1169" math="0" shadow="0">
      <root>
        <mxCell id="0" />
        <mxCell id="1" parent="0" />
        <mxCell id="FHRovXxU-aTZrbRf6lEy-5" value="Arete" style="swimlane;fontStyle=1;align=center;verticalAlign=top;childLayout=stackLayout;horizontal=1;startSize=26;horizontalStack=0;resizeParent=1;resizeParentMax=0;resizeLast=0;collapsible=1;marginBottom=0;whiteSpace=wrap;html=1;fillColor=#f5f5f5;strokeColor=#666666;fontColor=#333333;" parent="1" vertex="1">
          <mxGeometry x="610" y="40" width="400" height="210" as="geometry" />
        </mxCell>
        <mxCell id="FHRovXxU-aTZrbRf6lEy-6" value="- poids: Map&amp;lt;TypeCout, Double&amp;gt;&lt;div&gt;&lt;br&gt;&lt;/div&gt;" style="text;strokeColor=#d6b656;fillColor=#fff2cc;align=left;verticalAlign=top;spacingLeft=4;spacingRight=4;overflow=hidden;rotatable=0;points=[[0,0.5],[1,0.5]];portConstraint=eastwest;whiteSpace=wrap;html=1;" parent="FHRovXxU-aTZrbRf6lEy-5" vertex="1">
          <mxGeometry y="26" width="400" height="34" as="geometry" />
        </mxCell>
        <mxCell id="FHRovXxU-aTZrbRf6lEy-9" value="&lt;div style=&quot;line-height: 140%;&quot;&gt;+ Arete(Sommet, Sommet, ModaliteTransport, Map&amp;lt;TypeCout, Double&amp;gt;)&lt;/div&gt;&lt;div style=&quot;line-height: 140%;&quot;&gt;+ getDepart(): Lieu&lt;/div&gt;&lt;div style=&quot;line-height: 140%;&quot;&gt;+ getArrivee(): Lieu&lt;/div&gt;&lt;div style=&quot;line-height: 140%;&quot;&gt;+ getModalite(): ModaliteTransport&lt;/div&gt;&lt;div style=&quot;line-height: 140%;&quot;&gt;+ toString(): String&lt;/div&gt;&lt;div style=&quot;line-height: 140%;&quot;&gt;+ getPoids() : Map&amp;lt;TypeCout, Double&amp;gt;&lt;/div&gt;&lt;div style=&quot;line-height: 140%;&quot;&gt;+ equals() : boolean&lt;/div&gt;&lt;div style=&quot;line-height: 140%;&quot;&gt;+ hashCode() : int&lt;/div&gt;" style="text;strokeColor=#d79b00;fillColor=#ffe6cc;align=left;verticalAlign=top;spacingLeft=4;spacingRight=4;overflow=hidden;rotatable=0;points=[[0,0.5],[1,0.5]];portConstraint=eastwest;whiteSpace=wrap;html=1;" parent="FHRovXxU-aTZrbRf6lEy-5" vertex="1">
          <mxGeometry y="60" width="400" height="150" as="geometry" />
        </mxCell>
        <mxCell id="FHRovXxU-aTZrbRf6lEy-17" value="&lt;div&gt;≪interface≫&lt;/div&gt;&lt;div&gt;Trancon&lt;/div&gt;" style="swimlane;fontStyle=1;align=center;verticalAlign=top;childLayout=stackLayout;horizontal=1;startSize=40;horizontalStack=0;resizeParent=1;resizeParentMax=0;resizeLast=0;collapsible=1;marginBottom=0;whiteSpace=wrap;html=1;fillColor=#f5f5f5;strokeColor=#666666;fontColor=#333333;" parent="1" vertex="1">
          <mxGeometry x="1130" y="50" width="390" height="134" as="geometry" />
        </mxCell>
        <mxCell id="FHRovXxU-aTZrbRf6lEy-18" value="&lt;div&gt;...&lt;/div&gt;&lt;div&gt;&lt;br&gt;&lt;/div&gt;" style="text;strokeColor=#d6b656;fillColor=#fff2cc;align=left;verticalAlign=top;spacingLeft=4;spacingRight=4;overflow=hidden;rotatable=0;points=[[0,0.5],[1,0.5]];portConstraint=eastwest;whiteSpace=wrap;html=1;" parent="FHRovXxU-aTZrbRf6lEy-17" vertex="1">
          <mxGeometry y="40" width="390" height="34" as="geometry" />
        </mxCell>
        <mxCell id="FHRovXxU-aTZrbRf6lEy-19" value="&lt;div&gt;&amp;nbsp;getDepart(): Lieu&lt;br&gt;&lt;/div&gt;&lt;div&gt;&amp;nbsp;getArrivee(): Lieu&lt;br&gt;&amp;nbsp;getModalite(): ModaliteTransport&lt;/div&gt;&lt;div&gt;&lt;br&gt;&lt;/div&gt;" style="text;strokeColor=#d79b00;fillColor=#ffe6cc;align=left;verticalAlign=top;spacingLeft=4;spacingRight=4;overflow=hidden;rotatable=0;points=[[0,0.5],[1,0.5]];portConstraint=eastwest;whiteSpace=wrap;html=1;" parent="FHRovXxU-aTZrbRf6lEy-17" vertex="1">
          <mxGeometry y="74" width="390" height="60" as="geometry" />
        </mxCell>
        <mxCell id="FHRovXxU-aTZrbRf6lEy-28" style="edgeStyle=orthogonalEdgeStyle;rounded=0;orthogonalLoop=1;jettySize=auto;html=1;entryX=-0.006;entryY=0.221;entryDx=0;entryDy=0;entryPerimeter=0;dashed=1;strokeColor=default;endArrow=block;endFill=0;" parent="1" source="FHRovXxU-aTZrbRf6lEy-6" target="FHRovXxU-aTZrbRf6lEy-18" edge="1">
          <mxGeometry relative="1" as="geometry">
            <Array as="points">
              <mxPoint x="1080" y="83" />
              <mxPoint x="1080" y="97" />
            </Array>
          </mxGeometry>
        </mxCell>
        <mxCell id="FHRovXxU-aTZrbRf6lEy-35" value="Sommet" style="swimlane;fontStyle=1;align=center;verticalAlign=top;childLayout=stackLayout;horizontal=1;startSize=26;horizontalStack=0;resizeParent=1;resizeParentMax=0;resizeLast=0;collapsible=1;marginBottom=0;whiteSpace=wrap;html=1;fillColor=#f5f5f5;fontColor=#333333;strokeColor=#666666;" parent="1" vertex="1">
          <mxGeometry x="40" y="67" width="160" height="120" as="geometry" />
        </mxCell>
        <mxCell id="FHRovXxU-aTZrbRf6lEy-36" value="- nom: String" style="text;strokeColor=#d6b656;fillColor=#fff2cc;align=left;verticalAlign=top;spacingLeft=4;spacingRight=4;overflow=hidden;rotatable=0;points=[[0,0.5],[1,0.5]];portConstraint=eastwest;whiteSpace=wrap;html=1;" parent="FHRovXxU-aTZrbRf6lEy-35" vertex="1">
          <mxGeometry y="26" width="160" height="26" as="geometry" />
        </mxCell>
        <mxCell id="FHRovXxU-aTZrbRf6lEy-37" value="&lt;div&gt;+ Sommet(String): &lt;br&gt;&lt;/div&gt;&lt;div&gt;+ toString(): String&lt;/div&gt;&lt;div&gt;+ equals() : boolean&lt;/div&gt;&lt;div&gt;+ hashCode() : int&lt;/div&gt;" style="text;strokeColor=#d79b00;fillColor=#ffe6cc;align=left;verticalAlign=top;spacingLeft=4;spacingRight=4;overflow=hidden;rotatable=0;points=[[0,0.5],[1,0.5]];portConstraint=eastwest;whiteSpace=wrap;html=1;" parent="FHRovXxU-aTZrbRf6lEy-35" vertex="1">
          <mxGeometry y="52" width="160" height="68" as="geometry" />
        </mxCell>
        <mxCell id="FHRovXxU-aTZrbRf6lEy-39" value="&lt;div&gt;≪interface≫&lt;/div&gt;&lt;div&gt;Lieu&lt;/div&gt;&lt;div&gt;&lt;br&gt;&lt;/div&gt;" style="swimlane;fontStyle=1;align=center;verticalAlign=top;childLayout=stackLayout;horizontal=1;startSize=40;horizontalStack=0;resizeParent=1;resizeParentMax=0;resizeLast=0;collapsible=1;marginBottom=0;whiteSpace=wrap;html=1;fillColor=#f5f5f5;strokeColor=#666666;fontColor=#333333;" parent="1" vertex="1">
          <mxGeometry x="270" y="48" width="200" height="134" as="geometry" />
        </mxCell>
        <mxCell id="FHRovXxU-aTZrbRf6lEy-40" value="&lt;div&gt;...&lt;/div&gt;&lt;div&gt;&lt;br&gt;&lt;/div&gt;" style="text;strokeColor=#d6b656;fillColor=#fff2cc;align=left;verticalAlign=top;spacingLeft=4;spacingRight=4;overflow=hidden;rotatable=0;points=[[0,0.5],[1,0.5]];portConstraint=eastwest;whiteSpace=wrap;html=1;" parent="FHRovXxU-aTZrbRf6lEy-39" vertex="1">
          <mxGeometry y="40" width="200" height="34" as="geometry" />
        </mxCell>
        <mxCell id="FHRovXxU-aTZrbRf6lEy-41" value="&lt;div style=&quot;line-height: 140%;&quot;&gt;&amp;nbsp;getDepart(): Lieu&lt;br&gt;&lt;/div&gt;&lt;div style=&quot;line-height: 140%;&quot;&gt;&amp;nbsp;getArrivee(): Lieu&lt;br&gt;&amp;nbsp;getModalite(): ModaliteTransport&lt;/div&gt;&lt;div&gt;&lt;br&gt;&lt;/div&gt;" style="text;strokeColor=#d79b00;fillColor=#ffe6cc;align=left;verticalAlign=top;spacingLeft=4;spacingRight=4;overflow=hidden;rotatable=0;points=[[0,0.5],[1,0.5]];portConstraint=eastwest;whiteSpace=wrap;html=1;" parent="FHRovXxU-aTZrbRf6lEy-39" vertex="1">
          <mxGeometry y="74" width="200" height="60" as="geometry" />
        </mxCell>
        <mxCell id="FHRovXxU-aTZrbRf6lEy-45" style="edgeStyle=orthogonalEdgeStyle;rounded=0;orthogonalLoop=1;jettySize=auto;html=1;entryX=0;entryY=0.5;entryDx=0;entryDy=0;dashed=1;endArrow=block;endFill=0;" parent="1" source="FHRovXxU-aTZrbRf6lEy-36" target="FHRovXxU-aTZrbRf6lEy-40" edge="1">
          <mxGeometry relative="1" as="geometry" />
        </mxCell>
        <mxCell id="FHRovXxU-aTZrbRf6lEy-46" style="edgeStyle=orthogonalEdgeStyle;rounded=0;orthogonalLoop=1;jettySize=auto;html=1;entryX=1;entryY=0.235;entryDx=0;entryDy=0;entryPerimeter=0;strokeWidth=1;endArrow=classic;endFill=1;" parent="1" source="FHRovXxU-aTZrbRf6lEy-6" target="FHRovXxU-aTZrbRf6lEy-40" edge="1">
          <mxGeometry relative="1" as="geometry" />
        </mxCell>
        <mxCell id="FHRovXxU-aTZrbRf6lEy-52" value="&lt;div&gt;- depart, arrivee&lt;br&gt;&lt;/div&gt;" style="text;whiteSpace=wrap;html=1;" parent="1" vertex="1">
          <mxGeometry x="480" y="97" width="100" height="40" as="geometry" />
        </mxCell>
        <mxCell id="FHRovXxU-aTZrbRf6lEy-53" value="2" style="text;whiteSpace=wrap;" parent="1" vertex="1">
          <mxGeometry x="480" y="70" width="50" height="40" as="geometry" />
        </mxCell>
        <mxCell id="FHRovXxU-aTZrbRf6lEy-55" value="&lt;div&gt;&amp;lt;&amp;lt;enum&amp;gt;&amp;gt;&lt;/div&gt;ModaliteTransport" style="swimlane;fontStyle=1;align=center;verticalAlign=top;childLayout=stackLayout;horizontal=1;startSize=40;horizontalStack=0;resizeParent=1;resizeParentMax=0;resizeLast=0;collapsible=1;marginBottom=0;whiteSpace=wrap;html=1;fillColor=#f5f5f5;strokeColor=#666666;fontColor=#333333;" parent="1" vertex="1">
          <mxGeometry x="1130" y="210" width="180" height="130" as="geometry" />
        </mxCell>
        <mxCell id="FHRovXxU-aTZrbRf6lEy-56" value="&lt;div&gt;TRAIN&lt;/div&gt;&lt;div&gt;AVION&lt;/div&gt;&lt;div&gt;BUS&lt;/div&gt;" style="text;align=left;verticalAlign=top;spacingLeft=4;spacingRight=4;overflow=hidden;rotatable=0;points=[[0,0.5],[1,0.5]];portConstraint=eastwest;whiteSpace=wrap;html=1;fillColor=#fff2cc;strokeColor=#d6b656;" parent="FHRovXxU-aTZrbRf6lEy-55" vertex="1">
          <mxGeometry y="40" width="180" height="60" as="geometry" />
        </mxCell>
        <mxCell id="FHRovXxU-aTZrbRf6lEy-57" value="&lt;div&gt;...&lt;/div&gt;&lt;div&gt;&lt;br&gt;&lt;/div&gt;" style="text;align=left;verticalAlign=top;spacingLeft=4;spacingRight=4;overflow=hidden;rotatable=0;points=[[0,0.5],[1,0.5]];portConstraint=eastwest;whiteSpace=wrap;html=1;fillColor=#ffe6cc;strokeColor=#d79b00;" parent="FHRovXxU-aTZrbRf6lEy-55" vertex="1">
          <mxGeometry y="100" width="180" height="30" as="geometry" />
        </mxCell>
        <mxCell id="FHRovXxU-aTZrbRf6lEy-61" style="edgeStyle=orthogonalEdgeStyle;rounded=0;orthogonalLoop=1;jettySize=auto;html=1;entryX=0;entryY=0.5;entryDx=0;entryDy=0;exitX=1;exitY=0.81;exitDx=0;exitDy=0;exitPerimeter=0;" parent="1" source="FHRovXxU-aTZrbRf6lEy-6" target="FHRovXxU-aTZrbRf6lEy-56" edge="1">
          <mxGeometry relative="1" as="geometry" />
        </mxCell>
        <mxCell id="FHRovXxU-aTZrbRf6lEy-62" value="&lt;span style=&quot;white-space: pre;&quot;&gt;&#x9;&lt;/span&gt;&lt;span style=&quot;white-space: pre;&quot;&gt;&#x9;&lt;/span&gt;1&lt;br&gt;&lt;div&gt;&lt;br&gt;&lt;/div&gt;&lt;div&gt;- modalite&lt;/div&gt;" style="text;whiteSpace=wrap;html=1;" parent="1" vertex="1">
          <mxGeometry x="1060" y="250" width="70" height="50" as="geometry" />
        </mxCell>
        <mxCell id="FHRovXxU-aTZrbRf6lEy-63" value="Plateforme" style="swimlane;fontStyle=1;align=center;verticalAlign=top;childLayout=stackLayout;horizontal=1;startSize=26;horizontalStack=0;resizeParent=1;resizeParentMax=0;resizeLast=0;collapsible=1;marginBottom=0;whiteSpace=wrap;html=1;fillColor=#f5f5f5;strokeColor=#666666;fontColor=#333333;" parent="1" vertex="1">
          <mxGeometry x="50" y="340" width="570" height="260" as="geometry" />
        </mxCell>
        <mxCell id="FHRovXxU-aTZrbRf6lEy-64" value="&lt;div&gt;- NB_VOYAGE_ELIGIBLE: int&lt;/div&gt;&lt;div&gt;- NB_DONNEES: int&lt;/div&gt;&lt;div&gt;&lt;br&gt;&lt;/div&gt;" style="text;strokeColor=#d6b656;fillColor=#fff2cc;align=left;verticalAlign=top;spacingLeft=4;spacingRight=4;overflow=hidden;rotatable=0;points=[[0,0.5],[1,0.5]];portConstraint=eastwest;whiteSpace=wrap;html=1;" parent="FHRovXxU-aTZrbRf6lEy-63" vertex="1">
          <mxGeometry y="26" width="570" height="44" as="geometry" />
        </mxCell>
        <mxCell id="FHRovXxU-aTZrbRf6lEy-67" value="&lt;div&gt;&lt;div&gt;+ Plateforme(String[], int)&lt;/div&gt;&lt;div&gt;+ getEnsembleSommet() : ArrayList&amp;lt;Sommet&amp;gt;&lt;/div&gt;&lt;div&gt;+ getEnsembleArete() : ArrayList&amp;lt;Arete&amp;gt;&lt;br&gt;&lt;/div&gt;&lt;div&gt;+ cptDonnée(String) : int&lt;/div&gt;&lt;div&gt;+ checkPtVirgule(String[]) : boolean&lt;/div&gt;&lt;div&gt;+ getInfo(String[]): ArrayList&amp;lt;ArrayList&amp;lt;String&amp;gt;&amp;gt;&lt;/div&gt;&lt;div&gt;- subSemiCol(String, int): String&lt;/div&gt;&lt;div&gt;- transportToString(ModaliteTransport) : String&lt;/div&gt;&lt;div&gt;- filtrageSelonTransport(&lt;span style=&quot;background-color: initial;&quot;&gt;ArrayList&amp;lt;ArrayList&amp;lt;String&amp;gt;&amp;gt;&lt;/span&gt;&lt;span style=&quot;background-color: initial;&quot;&gt;) :&amp;nbsp;&lt;/span&gt;&lt;span style=&quot;background-color: initial;&quot;&gt;ArrayList&amp;lt;ArrayList&amp;lt;String&amp;gt;&amp;gt;&lt;/span&gt;&lt;/div&gt;&lt;div&gt;+ graphSelonMod(String[], int&lt;span style=&quot;background-color: initial;&quot;&gt;): MultiGrapheOrienteValue&lt;/span&gt;&lt;/div&gt;&lt;/div&gt;&lt;div&gt;+ plusCourtChemin(Sommet, Sommet, MultiGrapheOrienteValue): List&amp;lt;Chemin&amp;gt;&lt;/div&gt;&lt;div&gt;+ voyagePossible(&lt;span style=&quot;background-color: initial;&quot;&gt;MultiGrapheOrienteValue, Sommet, Sommet) : boolean&lt;/span&gt;&lt;/div&gt;&lt;div&gt;&lt;br&gt;&lt;/div&gt;" style="text;strokeColor=#d79b00;fillColor=#ffe6cc;align=left;verticalAlign=top;spacingLeft=4;spacingRight=4;overflow=hidden;rotatable=0;points=[[0,0.5],[1,0.5]];portConstraint=eastwest;whiteSpace=wrap;html=1;" parent="FHRovXxU-aTZrbRf6lEy-63" vertex="1">
          <mxGeometry y="70" width="570" height="190" as="geometry" />
        </mxCell>
        <mxCell id="vIz2ECk9xMVI1TB96n5O-2" value="" style="endArrow=classic;html=1;rounded=0;entryX=0.75;entryY=0;entryDx=0;entryDy=0;exitX=0.996;exitY=0.028;exitDx=0;exitDy=0;exitPerimeter=0;" parent="1" source="FHRovXxU-aTZrbRf6lEy-64" target="vIz2ECk9xMVI1TB96n5O-6" edge="1">
          <mxGeometry width="50" height="50" relative="1" as="geometry">
            <mxPoint x="630" y="370" as="sourcePoint" />
            <mxPoint x="920" y="350" as="targetPoint" />
            <Array as="points">
              <mxPoint x="785" y="367" />
            </Array>
          </mxGeometry>
        </mxCell>
        <mxCell id="vIz2ECk9xMVI1TB96n5O-3" value="" style="endArrow=classic;html=1;rounded=0;exitX=0.137;exitY=0.001;exitDx=0;exitDy=0;exitPerimeter=0;entryX=0.572;entryY=1.003;entryDx=0;entryDy=0;entryPerimeter=0;" parent="1" source="FHRovXxU-aTZrbRf6lEy-63" target="FHRovXxU-aTZrbRf6lEy-37" edge="1">
          <mxGeometry width="50" height="50" relative="1" as="geometry">
            <mxPoint x="114" y="170" as="sourcePoint" />
            <mxPoint x="140" y="200" as="targetPoint" />
          </mxGeometry>
        </mxCell>
        <mxCell id="vIz2ECk9xMVI1TB96n5O-4" value="0...&lt;span style=&quot;background-color: initial;&quot;&gt;*&lt;/span&gt;" style="text;html=1;align=center;verticalAlign=middle;resizable=0;points=[];autosize=1;strokeColor=none;fillColor=none;" parent="1" vertex="1">
          <mxGeometry x="90" y="187" width="40" height="30" as="geometry" />
        </mxCell>
        <mxCell id="vIz2ECk9xMVI1TB96n5O-5" value="-&amp;nbsp;&lt;span style=&quot;background-color: initial;&quot;&gt;ensembleSommet&lt;/span&gt;" style="text;html=1;align=center;verticalAlign=middle;resizable=0;points=[];autosize=1;strokeColor=none;fillColor=none;" parent="1" vertex="1">
          <mxGeometry x="130" y="187" width="130" height="30" as="geometry" />
        </mxCell>
        <mxCell id="vIz2ECk9xMVI1TB96n5O-6" value="0...*" style="text;html=1;align=center;verticalAlign=middle;whiteSpace=wrap;rounded=0;" parent="1" vertex="1">
          <mxGeometry x="740" y="250" width="60" height="30" as="geometry" />
        </mxCell>
        <mxCell id="vIz2ECk9xMVI1TB96n5O-7" value="- ensembleArete" style="text;html=1;align=center;verticalAlign=middle;resizable=0;points=[];autosize=1;strokeColor=none;fillColor=none;" parent="1" vertex="1">
          <mxGeometry x="790" y="250" width="110" height="30" as="geometry" />
        </mxCell>
        <mxCell id="vIz2ECk9xMVI1TB96n5O-10" value="GenGraph" style="swimlane;fontStyle=1;align=center;verticalAlign=top;childLayout=stackLayout;horizontal=1;startSize=26;horizontalStack=0;resizeParent=1;resizeParentMax=0;resizeLast=0;collapsible=1;marginBottom=0;whiteSpace=wrap;html=1;fillColor=#f5f5f5;strokeColor=#666666;fontColor=#333333;" parent="1" vertex="1">
          <mxGeometry x="860" y="440" width="590" height="140" as="geometry" />
        </mxCell>
        <mxCell id="vIz2ECk9xMVI1TB96n5O-11" value="- poids: Map&amp;lt;TypeCout, Double&amp;gt;&lt;div&gt;&lt;br&gt;&lt;/div&gt;" style="text;strokeColor=#d6b656;fillColor=#fff2cc;align=left;verticalAlign=top;spacingLeft=4;spacingRight=4;overflow=hidden;rotatable=0;points=[[0,0.5],[1,0.5]];portConstraint=eastwest;whiteSpace=wrap;html=1;" parent="vIz2ECk9xMVI1TB96n5O-10" vertex="1">
          <mxGeometry y="26" width="590" height="34" as="geometry" />
        </mxCell>
        <mxCell id="vIz2ECk9xMVI1TB96n5O-12" value="&lt;div style=&quot;line-height: 140%;&quot;&gt;+ creatArete(&lt;span style=&quot;background-color: initial;&quot;&gt;ArrayList&amp;lt;ArrayList&amp;lt;String&amp;gt;&amp;gt;, ArrayList&amp;lt;Sommet&amp;gt;, int) : ArrayList&amp;lt;Arete&amp;gt;&lt;/span&gt;&lt;/div&gt;&lt;div style=&quot;line-height: 140%;&quot;&gt;&lt;span style=&quot;background-color: initial;&quot;&gt;- rechercheSommet(ArrayList&amp;lt;Sommet&amp;gt;, String) : Sommet&lt;/span&gt;&lt;/div&gt;&lt;div style=&quot;line-height: 140%;&quot;&gt;&lt;span style=&quot;background-color: initial;&quot;&gt;+ creatSommet(&lt;/span&gt;&lt;span style=&quot;background-color: initial;&quot;&gt;ArrayList&amp;lt;ArrayList&amp;lt;String&amp;gt;&amp;gt;) : ArrayList&amp;lt;Sommet&amp;gt;&lt;/span&gt;&lt;/div&gt;&lt;div style=&quot;line-height: 140%;&quot;&gt;&lt;span style=&quot;background-color: initial;&quot;&gt;+ creationGraph(&lt;/span&gt;&lt;span style=&quot;background-color: initial;&quot;&gt;ArrayList&amp;lt;ArrayList&amp;lt;String&amp;gt;&amp;gt;, int, TypeCout, ArrayList&amp;lt;Sommet&amp;gt; :&amp;nbsp;&lt;/span&gt;&lt;span style=&quot;background-color: initial;&quot;&gt;MultiGrapheOrienteValue&lt;/span&gt;&lt;/div&gt;" style="text;strokeColor=#d79b00;fillColor=#ffe6cc;align=left;verticalAlign=top;spacingLeft=4;spacingRight=4;overflow=hidden;rotatable=0;points=[[0,0.5],[1,0.5]];portConstraint=eastwest;whiteSpace=wrap;html=1;" parent="vIz2ECk9xMVI1TB96n5O-10" vertex="1">
          <mxGeometry y="60" width="590" height="80" as="geometry" />
        </mxCell>
        <mxCell id="vIz2ECk9xMVI1TB96n5O-14" value="1" style="text;html=1;align=center;verticalAlign=middle;resizable=0;points=[];autosize=1;strokeColor=none;fillColor=none;" parent="1" vertex="1">
          <mxGeometry x="810" y="440" width="30" height="30" as="geometry" />
        </mxCell>
        <mxCell id="vIz2ECk9xMVI1TB96n5O-15" value="- generateur" style="text;html=1;align=center;verticalAlign=middle;resizable=0;points=[];autosize=1;strokeColor=none;fillColor=none;" parent="1" vertex="1">
          <mxGeometry x="770" y="470" width="90" height="30" as="geometry" />
        </mxCell>
        <mxCell id="vIz2ECk9xMVI1TB96n5O-13" value="" style="endArrow=classic;html=1;rounded=0;exitX=1;exitY=0.5;exitDx=0;exitDy=0;entryX=0.004;entryY=0.116;entryDx=0;entryDy=0;entryPerimeter=0;" parent="1" source="FHRovXxU-aTZrbRf6lEy-63" target="vIz2ECk9xMVI1TB96n5O-11" edge="1">
          <mxGeometry width="50" height="50" relative="1" as="geometry">
            <mxPoint x="750" y="440" as="sourcePoint" />
            <mxPoint x="620" y="460" as="targetPoint" />
            <Array as="points" />
          </mxGeometry>
        </mxCell>
        <mxCell id="vIz2ECk9xMVI1TB96n5O-17" value="&lt;div&gt;&amp;lt;&amp;lt;enum&amp;gt;&amp;gt;&lt;/div&gt;TypeCout" style="swimlane;fontStyle=1;align=center;verticalAlign=top;childLayout=stackLayout;horizontal=1;startSize=40;horizontalStack=0;resizeParent=1;resizeParentMax=0;resizeLast=0;collapsible=1;marginBottom=0;whiteSpace=wrap;html=1;fillColor=#f5f5f5;strokeColor=#666666;fontColor=#333333;" parent="1" vertex="1">
          <mxGeometry x="390" y="730" width="130" height="130" as="geometry">
            <mxRectangle x="1360" y="210" width="100" height="40" as="alternateBounds" />
          </mxGeometry>
        </mxCell>
        <mxCell id="vIz2ECk9xMVI1TB96n5O-18" value="&lt;div&gt;PRIX&lt;/div&gt;&lt;div&gt;CO2&lt;/div&gt;&lt;div&gt;TEMPS&lt;/div&gt;" style="text;align=left;verticalAlign=top;spacingLeft=4;spacingRight=4;overflow=hidden;rotatable=0;points=[[0,0.5],[1,0.5]];portConstraint=eastwest;whiteSpace=wrap;html=1;fillColor=#fff2cc;strokeColor=#d6b656;" parent="vIz2ECk9xMVI1TB96n5O-17" vertex="1">
          <mxGeometry y="40" width="130" height="60" as="geometry" />
        </mxCell>
        <mxCell id="vIz2ECk9xMVI1TB96n5O-19" value="&lt;div&gt;...&lt;/div&gt;&lt;div&gt;&lt;br&gt;&lt;/div&gt;" style="text;align=left;verticalAlign=top;spacingLeft=4;spacingRight=4;overflow=hidden;rotatable=0;points=[[0,0.5],[1,0.5]];portConstraint=eastwest;whiteSpace=wrap;html=1;fillColor=#ffe6cc;strokeColor=#d79b00;" parent="vIz2ECk9xMVI1TB96n5O-17" vertex="1">
          <mxGeometry y="100" width="130" height="30" as="geometry" />
        </mxCell>
        <mxCell id="2iQoV5b_-APFQ94S1e94-1" value="Voyageur" style="swimlane;fontStyle=1;align=center;verticalAlign=top;childLayout=stackLayout;horizontal=1;startSize=26;horizontalStack=0;resizeParent=1;resizeParentMax=0;resizeLast=0;collapsible=1;marginBottom=0;whiteSpace=wrap;html=1;fillColor=#f5f5f5;strokeColor=#666666;fontColor=#333333;" vertex="1" parent="1">
          <mxGeometry x="790" y="690" width="590" height="140" as="geometry" />
        </mxCell>
        <mxCell id="2iQoV5b_-APFQ94S1e94-2" value="&lt;div&gt;- String&lt;/div&gt;" style="text;strokeColor=#d6b656;fillColor=#fff2cc;align=left;verticalAlign=top;spacingLeft=4;spacingRight=4;overflow=hidden;rotatable=0;points=[[0,0.5],[1,0.5]];portConstraint=eastwest;whiteSpace=wrap;html=1;" vertex="1" parent="2iQoV5b_-APFQ94S1e94-1">
          <mxGeometry y="26" width="590" height="34" as="geometry" />
        </mxCell>
        <mxCell id="2iQoV5b_-APFQ94S1e94-3" value="&lt;div style=&quot;line-height: 140%;&quot;&gt;+ getNom() : String&lt;/div&gt;&lt;div style=&quot;line-height: 140%;&quot;&gt;+ getCritereAOptimiser : TypeCout&lt;/div&gt;&lt;div style=&quot;line-height: 140%;&quot;&gt;+ getModeDeDeplacement() + ModaliteTransport&lt;/div&gt;" style="text;strokeColor=#d79b00;fillColor=#ffe6cc;align=left;verticalAlign=top;spacingLeft=4;spacingRight=4;overflow=hidden;rotatable=0;points=[[0,0.5],[1,0.5]];portConstraint=eastwest;whiteSpace=wrap;html=1;" vertex="1" parent="2iQoV5b_-APFQ94S1e94-1">
          <mxGeometry y="60" width="590" height="80" as="geometry" />
        </mxCell>
        <mxCell id="2iQoV5b_-APFQ94S1e94-5" value="" style="endArrow=classic;html=1;rounded=0;exitX=1;exitY=0.5;exitDx=0;exitDy=0;entryX=1;entryY=0.5;entryDx=0;entryDy=0;" edge="1" parent="1" source="2iQoV5b_-APFQ94S1e94-1" target="FHRovXxU-aTZrbRf6lEy-56">
          <mxGeometry width="50" height="50" relative="1" as="geometry">
            <mxPoint x="1500" y="780" as="sourcePoint" />
            <mxPoint x="1310" y="320" as="targetPoint" />
            <Array as="points">
              <mxPoint x="1560" y="760" />
              <mxPoint x="1560" y="280" />
            </Array>
          </mxGeometry>
        </mxCell>
        <mxCell id="2iQoV5b_-APFQ94S1e94-6" value="1" style="text;html=1;align=center;verticalAlign=middle;resizable=0;points=[];autosize=1;strokeColor=none;fillColor=none;" vertex="1" parent="1">
          <mxGeometry x="1310" y="250" width="30" height="30" as="geometry" />
        </mxCell>
        <mxCell id="2iQoV5b_-APFQ94S1e94-7" value="- modeDeDeplacement" style="text;html=1;align=center;verticalAlign=middle;resizable=0;points=[];autosize=1;strokeColor=none;fillColor=none;" vertex="1" parent="1">
          <mxGeometry x="1310" y="280" width="150" height="30" as="geometry" />
        </mxCell>
        <mxCell id="2iQoV5b_-APFQ94S1e94-8" value="" style="endArrow=classic;html=1;rounded=0;entryX=1;entryY=0.5;entryDx=0;entryDy=0;" edge="1" parent="1" target="vIz2ECk9xMVI1TB96n5O-18">
          <mxGeometry width="50" height="50" relative="1" as="geometry">
            <mxPoint x="790" y="800" as="sourcePoint" />
            <mxPoint x="700" y="720" as="targetPoint" />
          </mxGeometry>
        </mxCell>
        <mxCell id="2iQoV5b_-APFQ94S1e94-9" value="1" style="text;html=1;align=center;verticalAlign=middle;resizable=0;points=[];autosize=1;strokeColor=none;fillColor=none;" vertex="1" parent="1">
          <mxGeometry x="530" y="770" width="30" height="30" as="geometry" />
        </mxCell>
        <mxCell id="2iQoV5b_-APFQ94S1e94-10" value="- critereAOptimiser" style="text;html=1;align=center;verticalAlign=middle;resizable=0;points=[];autosize=1;strokeColor=none;fillColor=none;" vertex="1" parent="1">
          <mxGeometry x="520" y="800" width="120" height="30" as="geometry" />
        </mxCell>
        <mxCell id="2iQoV5b_-APFQ94S1e94-11" value="" style="endArrow=classic;html=1;rounded=0;exitX=1;exitY=0.421;exitDx=0;exitDy=0;exitPerimeter=0;entryX=0;entryY=0.118;entryDx=0;entryDy=0;entryPerimeter=0;" edge="1" parent="1" source="FHRovXxU-aTZrbRf6lEy-67" target="2iQoV5b_-APFQ94S1e94-2">
          <mxGeometry width="50" height="50" relative="1" as="geometry">
            <mxPoint x="700" y="660" as="sourcePoint" />
            <mxPoint x="750" y="610" as="targetPoint" />
            <Array as="points">
              <mxPoint x="720" y="490" />
              <mxPoint x="720" y="720" />
            </Array>
          </mxGeometry>
        </mxCell>
        <mxCell id="2iQoV5b_-APFQ94S1e94-12" value="1" style="text;html=1;align=center;verticalAlign=middle;resizable=0;points=[];autosize=1;strokeColor=none;fillColor=none;" vertex="1" parent="1">
          <mxGeometry x="760" y="690" width="30" height="30" as="geometry" />
        </mxCell>
        <mxCell id="2iQoV5b_-APFQ94S1e94-13" value="- user" style="text;html=1;align=center;verticalAlign=middle;resizable=0;points=[];autosize=1;strokeColor=none;fillColor=none;" vertex="1" parent="1">
          <mxGeometry x="740" y="720" width="50" height="30" as="geometry" />
        </mxCell>
      </root>
    </mxGraphModel>
  </diagram>
</mxfile>
